.
 
http://www.scenetime.com    -  Hottest private tracker on the net. !!!

Sign up will close shortly !!  Join now 

        Seed back for speed


...................................NFO:.................................................








































          
          
              
              
                    
                    
                    
                    

Colombiana.2011.TS.Xvid-SiC

Poster:
[img]http://img851.imageshack.us/img851/8885/colombianamovieposter20.jpg[/img]

IMDB Link:
http://www.imdb.com/title/tt1657507/

Description:
A young woman, after witnessing her parents' murder as a child in Bogota, grows 
up to be a stone-cold assassin.

MediaInfo:
General
Complete name                    : Colombiana.2011.TS.Xvid-SiC.avi
Format                           : AVI
Format/Info                      : Audio Video Interleave
File size                        : 1 013 MiB
Duration                         : 1h 43mn
Overall bit rate                 : 1 362 Kbps

Video
ID                               : 0
Format                           : MPEG-4 Visual
Format profile                   : Advanced Simple@L5
Format settings, BVOP            : Yes
Format settings, QPel            : No
Format settings, GMC             : No warppoints
Format settings, Matrix          : Default (H.263)
Muxing mode                      : Packed bitstream
Codec ID                         : XVID
Codec ID/Hint                    : XviD
Duration                         : 1h 43mn
Bit rate                         : 1 227 Kbps
Width                            : 720 pixels
Height                           : 320 pixels
Display aspect ratio             : 2.25:1
Frame rate                       : 29.970 fps
Resolution                       : 8 bits
Colorimetry                      : 4:2:0
Scan type                        : Progressive
Bits/(Pixel*Frame)               : 0.178
Stream size                      : 913 MiB (90%)
Writing library                  : XviD 64

Audio
ID                               : 1
Format                           : MPEG Audio
Format version                   : Version 1
Format profile                   : Layer 3
Mode                             : Joint stereo
Format_Settings_ModeExtension    : MS Stereo
Codec ID                         : 55
Codec ID/Hint                    : MP3
Duration                         : 1h 43mn
Bit rate mode                    : Constant
Bit rate                         : 128 Kbps
Channel(s)                       : 2 channels
Sampling rate                    : 44.1 KHz
Stream size                      : 95.2 MiB (9%)
Alignment                        : Aligned on interleaves
Interleave, duration             : 133 ms (4.00 video frames)
Interleave, preload duration     : 208 ms
Title                            : 2ch English
Writing library                  : LAME3.98r
Encoding settings                : -m j -V 4 -q 2 -lowpass 17 -b 128

Screenshots:
[img]http://img405.imageshack.us/img405/994/vlcsnap2011082902h59m15.png[/img]
[img]http://img718.imageshack.us/img718/1920/vlcsnap2011082902h58m34.png[/img]
[img]http://img844.imageshack.us/img844/1/vlcsnap2011082902h58m16.png[/img]
[img]http://img713.imageshack.us/img713/5644/colombiana2011tsxvidsic.png[/img]
[img]http://img195.imageshack.us/img195/5644/colombiana2011tsxvidsic.png[/img]
[img]http://img59.imageshack.us/img59/5644/colombiana2011tsxvidsic.png[/img]
[img]http://img820.imageshack.us/img820/5644/colombiana2011tsxvidsic.png[/img]

Note : A Few filtering ect its not great but if you carnt wait here it is 
hope you enjoy ;)   

video Source :HP Thanks!!!
Audio Source :IMAGiNE Thanks!!!

Encoder: Bezauk

Enjoy!

Respects to CaptainHomey, Cyanide, CM8, Rx, THC, ELEKTRI4KA, 
Killerhz, PA, YeFsTe, BoxSlots, MrRep and everyone in the struggle...